<?xml version="1.0" encoding="utf-8"?>
<!-- Generator: Adobe Illustrator 16.0.0, SVG Export Plug-In . SVG Version: 6.00 Build 0)  -->
<!DOCTYPE svg PUBLIC "-//W3C//DTD SVG 1.1//EN" "http://www.w3.org/Graphics/SVG/1.1/DTD/svg11.dtd">
<svg version="1.1" id="Layer_1" xmlns="http://www.w3.org/2000/svg" xmlns:xlink="http://www.w3.org/1999/xlink" x="0px" y="0px"
	 width="540px" height="150px" viewBox="0 0 540 150" enable-background="new 0 0 540 150" xml:space="preserve">
<g>
	<path fill="#00B0FF" d="M144.621,81.367c-0.405-0.861-1.27-1.41-2.223-1.41h-29.309c-1.128,2.891-3.283,5.199-5.976,6.531
		l-10.016,5.867l28.342,28.336c0.469,0.469,1.094,0.719,1.731,0.719c0.279,0,0.561-0.047,0.829-0.146
		c0.896-0.32,1.523-1.129,1.615-2.074c1.23-12.977,6.302-25.152,14.67-35.213C144.894,83.244,145.023,82.23,144.621,81.367z"/>
	<path fill="#00B0FF" d="M4.706,70.645h40.258v-17.25L21.523,29.952c-0.675-0.676-1.672-0.896-2.566-0.572
		c-0.896,0.323-1.522,1.131-1.609,2.079c-1.2,12.954-6.225,25.116-14.531,35.174c-0.605,0.729-0.732,1.744-0.328,2.607
		C2.894,70.097,3.759,70.645,4.706,70.645z"/>
	<path fill="#00B0FF" d="M88.574,53.6l30.266-30.266c0.669-0.67,0.893-1.669,0.573-2.562c-0.321-0.896-1.128-1.523-2.071-1.614
		c-12.981-1.243-25.154-6.326-35.204-14.695c-0.732-0.608-1.752-0.737-2.61-0.335c-0.861,0.404-1.413,1.269-1.413,2.222v41.123
		L88.574,53.6z"/>
	<path fill="#00B0FF" d="M107.495,64.682c2.398,1.301,4.329,3.386,5.431,5.963h29.287c0.948,0,1.813-0.548,2.217-1.404
		c0.407-0.863,0.278-1.878-0.326-2.607c-8.302-10.056-13.33-22.221-14.533-35.176c-0.084-0.946-0.712-1.757-1.607-2.08
		c-0.896-0.322-1.892-0.102-2.565,0.574L96.884,58.466L107.495,64.682z"/>
	<path fill="#00B0FF" d="M47.188,42.44c1.018-1.461,2.34-2.72,3.939-3.636c3.808-2.183,8.5-2.163,12.29,0.059l5.386,3.154V6.35
		c0-0.948-0.552-1.815-1.414-2.217c-0.858-0.404-1.877-0.273-2.607,0.335c-10.058,8.369-22.229,13.45-35.201,14.693
		c-0.943,0.091-1.751,0.718-2.073,1.611c-0.32,0.895-0.095,1.892,0.574,2.562L47.188,42.44z"/>
	<path fill="#00B0FF" d="M44.964,79.957H4.522c-0.951,0-1.817,0.549-2.219,1.41c-0.405,0.863-0.273,1.877,0.335,2.609
		c8.366,10.059,13.438,22.234,14.671,35.217c0.088,0.945,0.716,1.756,1.609,2.076c0.273,0.096,0.551,0.145,0.831,0.145
		c0.639,0,1.267-0.248,1.733-0.721l23.482-23.479V79.957z"/>
	<path fill="#00B0FF" d="M88.792,97.221l-10.676,6.254v40.76c0,0.947,0.552,1.811,1.408,2.215c0.335,0.16,0.689,0.236,1.044,0.236
		c0.56,0,1.115-0.193,1.565-0.564c10.082-8.346,22.29-13.383,35.301-14.574c0.949-0.088,1.76-0.713,2.083-1.607
		c0.324-0.895,0.102-1.895-0.573-2.566L88.792,97.221z"/>
	<path fill="#00B0FF" d="M63.417,112.086c-1.913,1.121-4.052,1.68-6.196,1.68c-2.104,0-4.207-0.541-6.094-1.623
		c-1.675-0.957-3.044-2.291-4.077-3.844l-19.072,19.076c-0.676,0.67-0.896,1.67-0.576,2.564c0.326,0.896,1.135,1.521,2.084,1.607
		c13.01,1.191,25.217,6.232,35.3,14.576c0.449,0.369,1.005,0.562,1.564,0.562c0.355,0,0.711-0.076,1.043-0.236
		c0.859-0.4,1.409-1.268,1.409-2.215v-35.303L63.417,112.086z"/>
</g>
<path stroke="#828282" stroke-miterlimit="10" d="M105.116,74.185c-0.325-0.881-0.98-1.588-1.796-2.002L59.081,46.266
	c-1.137-0.666-2.545-0.672-3.687-0.018c-1.145,0.656-1.85,1.872-1.85,3.192v52.069c0,1.316,0.705,2.533,1.85,3.189
	c0.565,0.326,1.197,0.486,1.827,0.486c0.643,0,1.285-0.168,1.859-0.504l44.037-25.799c1.011-0.428,1.801-1.307,2.11-2.418
	C105.439,75.696,105.387,74.899,105.116,74.185z"/>
<g>
	<path stroke="#828282" stroke-miterlimit="10" d="M253.937,47.699h-12.114c-0.994,0-1.889,0.599-2.266,1.518l-9.392,22.79
		l-12.445,34.188l-12.692-34.739l-9.29-22.249c-0.381-0.914-1.274-1.508-2.263-1.508H181.36c-0.824,0-1.59,0.413-2.044,1.099
		c-0.454,0.687-0.534,1.555-0.211,2.312l28.803,67.707c0.386,0.902,1.272,1.49,2.256,1.49h15.107c0.985,0,1.873-0.59,2.257-1.496
		l28.664-67.705c0.321-0.756,0.241-1.624-0.213-2.308C255.525,48.11,254.759,47.699,253.937,47.699z"/>
	<path stroke="#828282" stroke-miterlimit="10" d="M275.191,16.033c-4.657,0-9.67,2.991-9.67,9.557c0,6.567,5.013,9.559,9.67,9.559
		s9.67-2.992,9.67-9.559C284.861,19.023,279.849,16.033,275.191,16.033z"/>
	<path stroke="#828282" stroke-miterlimit="10" d="M280.746,47.547h-11.109c-1.352,0-2.451,1.099-2.451,2.454v67.552
		c0,1.355,1.099,2.451,2.451,2.451h11.109c1.354,0,2.452-1.096,2.452-2.451V50.001C283.198,48.646,282.101,47.547,280.746,47.547z"
		/>
	<path stroke="#828282" stroke-miterlimit="10" d="M349.378,47.743c-3.062-1.062-7.905-1.86-11.266-1.86
		c-7.144,0-14.511,1.213-19.996,10.015l-1.736,2.791l-1.383-8.77c-0.188-1.191-1.216-2.069-2.423-2.069H302.29
		c-1.354,0-2.451,1.099-2.451,2.452v67.25c0,1.355,1.098,2.451,2.451,2.451h11.109c1.354,0,2.452-1.096,2.452-2.451V81.885
		c0-18.69,15.187-20.145,19.841-20.145c2.489,0,5.326,0.439,7.586,1.176c1.2,0.391,2.507-0.199,3.011-1.362l4.537-10.524
		c0.27-0.625,0.268-1.334-0.007-1.959C350.543,48.448,350.021,47.967,349.378,47.743z"/>
	<path stroke="#828282" stroke-miterlimit="10" d="M389.592,46.336c-22.001,0-37.365,15.49-37.365,37.667
		c0,22.18,15.427,37.668,37.515,37.668c22.178,0,37.667-15.488,37.667-37.668C427.408,62.18,411.505,46.336,389.592,46.336z
		 M389.741,107.174c-14.773,0-21.501-12.01-21.501-23.17c0-11.588,7.385-23.32,21.501-23.32c13.461,0,21.504,11.856,21.504,23.32
		C411.245,95.164,404.517,107.174,389.741,107.174z"/>
	<path stroke="#828282" stroke-miterlimit="10" d="M473.999,46.336c-21.999,0-37.363,15.49-37.363,37.667
		c0,22.18,15.426,37.668,37.514,37.668c22.179,0,37.669-15.488,37.669-37.668C511.818,62.18,495.914,46.336,473.999,46.336z
		 M474.149,107.174c-14.775,0-21.505-12.01-21.505-23.17c0-11.588,7.388-23.32,21.505-23.32c13.461,0,21.504,11.856,21.504,23.32
		C495.653,95.164,488.924,107.174,474.149,107.174z"/>
	<path stroke="#828282" stroke-miterlimit="10" d="M535.478,16.673h-10.956c-1.354,0-2.452,1.099-2.452,2.453v98.427
		c0,1.355,1.098,2.451,2.452,2.451h10.956c1.354,0,2.452-1.096,2.452-2.451V19.125C537.93,17.772,536.832,16.673,535.478,16.673z"/>
</g>
<g>
	<g>
		<path d="M55.282,78.947c0.844,0,2.008-1.283,0.701-1.283C55.139,77.664,53.975,78.947,55.282,78.947L55.282,78.947z"/>
	</g>
</g>
</svg>
